<?xml version="1.0" standalone="no"?>
<!DOCTYPE svg PUBLIC "-//W3C//DTD SVG 20010904//EN"
 "http://www.w3.org/TR/2001/REC-SVG-20010904/DTD/svg10.dtd">
<svg version="1.0" xmlns="http://www.w3.org/2000/svg"
 width="512.000000pt" height="512.000000pt" viewBox="0 0 512.000000 512.000000"
 preserveAspectRatio="xMidYMid meet">

<g transform="translate(0.000000,512.000000) scale(0.100000,-0.100000)"
fill="#b82824" stroke="none">
<path d="M737 4400 c-333 -56 -600 -294 -704 -625 l-28 -90 0 -1125 0 -1125
28 -90 c93 -296 306 -509 602 -602 l90 -28 1825 0 1825 0 85 22 c94 25 247 97
298 140 45 38 47 86 7 120 -34 29 -54 26 -128 -21 -75 -48 -160 -82 -253 -101
-71 -14 -260 -15 -1859 -13 -1688 3 -1783 4 -1840 22 -250 76 -436 262 -511
511 -17 56 -19 131 -21 1130 -3 950 -2 1079 12 1149 71 352 365 586 735 586
83 0 93 2 115 25 14 13 25 36 25 50 0 14 -11 37 -25 50 -23 24 -30 25 -127 24
-57 -1 -125 -5 -151 -9z"/>
<path d="M1235 4386 c-30 -30 -32 -65 -6 -97 l19 -24 1564 -5 c1473 -5 1566
-7 1623 -24 252 -76 441 -267 512 -516 17 -61 18 -126 18 -1160 0 -1223 4
-1141 -71 -1294 -46 -94 -45 -125 6 -151 22 -11 35 -12 59 -4 25 9 39 26 71
92 22 45 50 120 63 167 l22 85 0 1115 0 1115 -28 90 c-93 296 -306 509 -602
602 l-90 28 -1568 3 -1567 2 -25 -24z"/>
<path d="M2020 3439 c-46 -19 -92 -62 -111 -103 -17 -38 -19 -75 -19 -557 0
-507 0 -517 21 -543 27 -34 77 -36 107 -3 22 23 22 24 22 529 0 447 2 508 16
522 8 9 21 16 28 16 19 0 1178 -703 1190 -723 8 -12 8 -22 0 -35 -12 -19
-1171 -722 -1190 -722 -30 0 -44 31 -44 101 0 61 -3 73 -25 94 -31 32 -69 32
-100 0 -23 -22 -25 -32 -25 -107 0 -103 24 -158 88 -203 37 -26 53 -30 106
-30 l62 0 425 256 c233 141 509 307 613 370 224 135 241 153 241 259 0 101
-22 126 -191 229 -1009 611 -1085 654 -1137 658 -29 1 -63 -2 -77 -8z"/>
</g>
</svg>
